<svg width="519" height="538" viewBox="0 0 519 538" fill="none" xmlns="http://www.w3.org/2000/svg">
<g opacity="0.09">
<path d="M15.1314 -6H1.29883V5.56904H15.1314V-6Z" fill="#E4E4E4"/>
<path d="M33.906 -6H20.0625V5.56904H33.906V-6Z" fill="#BDBFC0"/>
<path d="M52.6716 -5.99988H38.8281V5.56916H52.6716V-5.99988Z" fill="#3D3D3D"/>
<path d="M71.447 -5.99988H57.6035V5.56916H71.447V-5.99988Z" fill="#3D3D3D"/>
<path d="M90.2087 -6H76.3652V5.56904H90.2087V-6Z" fill="#2B3133"/>
<path d="M108.973 -6H95.1406V5.56904H108.973V-6Z" fill="#E4E4E4"/>
<path d="M127.75 -6H113.906V5.56904H127.75V-6Z" fill="#3D3D3D"/>
<path d="M146.525 -5.99988H132.682V5.56916H146.525V-5.99988Z" fill="#BDBFC0"/>
<path d="M165.291 -6H151.447V5.56904H165.291V-6Z" fill="#BDBFC0"/>
<path d="M184.051 -6H170.219V5.56904H184.051V-6Z" fill="#3D3D3D"/>
<path d="M202.817 -6H188.984V5.56904H202.817V-6Z" fill="#3D3D3D"/>
<path d="M221.594 -6H207.75V5.56904H221.594V-6Z" fill="#4A5053"/>
<path d="M240.369 -6H226.525V5.56904H240.369V-6Z" fill="#BDBFC0"/>
<path d="M259.131 -6H245.287V5.56904H259.131V-6Z" fill="#8E989E"/>
<path d="M277.906 -5.99988H264.062V5.56916H277.906V-5.99988Z" fill="#E4E4E4"/>
<path d="M296.659 -6H282.826V5.56904H296.659V-6Z" fill="#4A5053"/>
<path d="M315.435 -5.99988H301.592V5.56916H315.435V-5.99988Z" fill="#BDBFC0"/>
<path d="M334.211 -6H320.367V5.56904H334.211V-6Z" fill="#BDBFC0"/>
<path d="M352.974 -6H339.131V5.56904H352.974V-6Z" fill="#BDBFC0"/>
<path d="M371.748 -6H357.904V5.56904H371.748V-6Z" fill="#E4E4E4"/>
<path d="M390.502 -6H376.67V5.56904H390.502V-6Z" fill="#4A5053"/>
<path d="M409.279 -6H395.436V5.56904H409.279V-6Z" fill="#BDBFC0"/>
<path d="M428.05 -6H414.207V5.56904H428.05V-6Z" fill="#4A5053"/>
<path d="M446.816 -5.99988H432.973V5.56916H446.816V-5.99988Z" fill="#4A5053"/>
<path d="M465.592 -5.99988H451.748V5.56916H465.592V-5.99988Z" fill="#4A5053"/>
<path d="M484.346 -6H470.514V5.56904H484.346V-6Z" fill="#BDBFC0"/>
<path d="M503.119 -6H489.275V5.56904H503.119V-6Z" fill="#2B3133"/>
<path d="M521.894 -6H508.051V5.56904H521.894V-6Z" fill="#BDBFC0"/>
<path d="M5.60681 10.6611H-7.94141V24.2312H5.60681V10.6611Z" fill="#E4E4E4"/>
<path d="M24.3596 10.6611H10.8223V24.2312H24.3596V10.6611Z" fill="#4A5053"/>
<path d="M43.1479 10.6611H29.5996V24.2312H43.1479V10.6611Z" fill="#3D3D3D"/>
<path d="M61.9115 10.6611H48.3633V24.2312H61.9115V10.6611Z" fill="#E4E4E4"/>
<path d="M80.6752 10.6611H67.127V24.2312H80.6752V10.6611Z" fill="#4A5053"/>
<path d="M99.4396 10.6611H85.9023V24.2312H99.4396V10.6611Z" fill="#BDBFC0"/>
<path d="M118.203 10.6611H104.666V24.2312H118.203V10.6611Z" fill="#E4E4E4"/>
<path d="M136.99 10.6611H123.441V24.2312H136.99V10.6611Z" fill="#E4E4E4"/>
<path d="M155.751 10.6611H142.203V24.2312H155.751V10.6611Z" fill="#8E989E"/>
<path d="M174.518 10.6611H160.98V24.2312H174.518V10.6611Z" fill="#2B3133"/>
<path d="M193.281 10.6611H179.744V24.2312H193.281V10.6611Z" fill="#8E989E"/>
<path d="M212.058 10.6611H198.51V24.2312H212.058V10.6611Z" fill="#4A5053"/>
<path d="M230.833 10.6611H217.285V24.2312H230.833V10.6611Z" fill="#E4E4E4"/>
<path d="M249.595 10.6611H236.047V24.2312H249.595V10.6611Z" fill="#2B3133"/>
<path d="M268.36 10.6611H254.822V24.2312H268.36V10.6611Z" fill="#BDBFC0"/>
<path d="M287.135 10.6611H273.598V24.2312H287.135V10.6611Z" fill="#E4E4E4"/>
<path d="M305.901 10.6611H292.363V24.2312H305.901V10.6611Z" fill="#4A5053"/>
<path d="M324.662 10.6611H311.125V24.2312H324.662V10.6611Z" fill="#BDBFC0"/>
<path d="M343.439 10.6611H329.891V24.2312H343.439V10.6611Z" fill="#BDBFC0"/>
<path d="M362.203 10.6611H348.666V24.2312H362.203V10.6611Z" fill="#4A5053"/>
<path d="M380.979 10.6611H367.441V24.2312H380.979V10.6611Z" fill="#3D3D3D"/>
<path d="M399.744 10.6611H386.207V24.2312H399.744V10.6611Z" fill="#3D3D3D"/>
<path d="M418.506 10.6611H404.969V24.2312H418.506V10.6611Z" fill="#2B3133"/>
<path d="M437.281 10.6611H423.732V24.2312H437.281V10.6611Z" fill="#E4E4E4"/>
<path d="M456.045 10.6611H442.508V24.2312H456.045V10.6611Z" fill="#8E989E"/>
<path d="M474.82 10.6611H461.283V24.2312H474.82V10.6611Z" fill="#8E989E"/>
<path d="M493.584 10.6611H480.047V24.2312H493.584V10.6611Z" fill="#E4E4E4"/>
<path d="M512.348 10.6611H498.811V24.2312H512.348V10.6611Z" fill="#3D3D3D"/>
<path d="M531.124 10.6611H517.576V24.2312H531.124V10.6611Z" fill="#E4E4E4"/>
<path d="M14.8694 29.5811H1.55078V42.9325H14.8694V29.5811Z" fill="#8E989E"/>
<path d="M33.6429 29.5811H20.3242V42.9325H33.6429V29.5811Z" fill="#BDBFC0"/>
<path d="M52.4085 29.5811H39.0898V42.9325H52.4085V29.5811Z" fill="#4A5053"/>
<path d="M71.1838 29.5811H57.8652V42.9325H71.1838V29.5811Z" fill="#BDBFC0"/>
<path d="M89.9475 29.5811H76.6289V42.9325H89.9475V29.5811Z" fill="#4A5053"/>
<path d="M108.711 29.5811H95.3926V42.9325H108.711V29.5811Z" fill="#BDBFC0"/>
<path d="M127.487 29.5811H114.168V42.9325H127.487V29.5811Z" fill="#E4E4E4"/>
<path d="M146.261 29.5811H132.932V42.9325H146.261V29.5811Z" fill="#BDBFC0"/>
<path d="M165.028 29.5811H151.709V42.9325H165.028V29.5811Z" fill="#E4E4E4"/>
<path d="M183.791 29.5811H170.473V42.9325H183.791V29.5811Z" fill="#BDBFC0"/>
<path d="M202.553 29.5811H189.234V42.9325H202.553V29.5811Z" fill="#3D3D3D"/>
<path d="M221.339 29.5811H208.01V42.9325H221.339V29.5811Z" fill="#E4E4E4"/>
<path d="M240.094 29.5811H226.775V42.9325H240.094V29.5811Z" fill="#E4E4E4"/>
<path d="M258.871 29.5811H245.541V42.9325H258.871V29.5811Z" fill="#8E989E"/>
<path d="M277.642 29.5811H264.312V42.9325H277.642V29.5811Z" fill="#BDBFC0"/>
<path d="M296.407 29.5811H283.088V42.9325H296.407V29.5811Z" fill="#2B3133"/>
<path d="M315.183 29.5811H301.854V42.9325H315.183V29.5811Z" fill="#BDBFC0"/>
<path d="M333.938 29.5811H320.619V42.9325H333.938V29.5811Z" fill="#4A5053"/>
<path d="M352.713 29.5811H339.395V42.9325H352.713V29.5811Z" fill="#BDBFC0"/>
<path d="M371.486 29.5811H358.156V42.9325H371.486V29.5811Z" fill="#BDBFC0"/>
<path d="M390.25 29.5811H376.932V42.9325H390.25V29.5811Z" fill="#BDBFC0"/>
<path d="M409.027 29.5811H395.697V42.9325H409.027V29.5811Z" fill="#4A5053"/>
<path d="M427.791 29.5811H414.473V42.9325H427.791V29.5811Z" fill="#4A5053"/>
<path d="M446.553 29.5811H433.234V42.9325H446.553V29.5811Z" fill="#4A5053"/>
<path d="M465.328 29.5811H451.998V42.9325H465.328V29.5811Z" fill="#BDBFC0"/>
<path d="M484.092 29.5811H470.773V42.9325H484.092V29.5811Z" fill="#E4E4E4"/>
<path d="M502.869 29.5811H489.539V42.9325H502.869V29.5811Z" fill="#4A5053"/>
<path d="M521.644 29.5811H508.314V42.9325H521.644V29.5811Z" fill="#E4E4E4"/>
<path d="M5.37723 48.4844H-7.72266V61.6171H5.37723V48.4844Z" fill="#BDBFC0"/>
<path d="M24.1429 48.4844H11.043V61.6171H24.1429V48.4844Z" fill="#E4E4E4"/>
<path d="M42.9183 48.4844H29.8184V61.6171H42.9183V48.4844Z" fill="#8E989E"/>
<path d="M61.6937 48.4844H48.5938V61.6171H61.6937V48.4844Z" fill="#3D3D3D"/>
<path d="M80.4554 48.4844H67.3555V61.6171H80.4554V48.4844Z" fill="#8E989E"/>
<path d="M99.221 48.4844H86.1211V61.6171H99.221V48.4844Z" fill="#BDBFC0"/>
<path d="M117.985 48.4844H104.885V61.6171H117.985V48.4844Z" fill="#2B3133"/>
<path d="M136.76 48.4844H123.66V61.6171H136.76V48.4844Z" fill="#4A5053"/>
<path d="M155.534 48.4844H142.434V61.6171H155.534V48.4844Z" fill="#E4E4E4"/>
<path d="M174.299 48.4844H161.199V61.6171H174.299V48.4844Z" fill="#4A5053"/>
<path d="M193.063 48.4844H179.963V61.6171H193.063V48.4844Z" fill="#BDBFC0"/>
<path d="M211.838 48.4844H198.738V61.6171H211.838V48.4844Z" fill="#2B3133"/>
<path d="M230.604 48.4844H217.504V61.6171H230.604V48.4844Z" fill="#2B3133"/>
<path d="M249.377 48.4844H236.277V61.6171H249.377V48.4844Z" fill="#2B3133"/>
<path d="M268.13 48.4844H255.041V61.6171H268.13V48.4844Z" fill="#2B3133"/>
<path d="M286.907 48.4844H273.807V61.6171H286.907V48.4844Z" fill="#2B3133"/>
<path d="M305.682 48.4844H292.582V61.6171H305.682V48.4844Z" fill="#BDBFC0"/>
<path d="M324.444 48.4844H311.344V61.6171H324.444V48.4844Z" fill="#4A5053"/>
<path d="M343.219 48.4844H330.119V61.6171H343.219V48.4844Z" fill="#4A5053"/>
<path d="M361.985 48.4844H348.885V61.6171H361.985V48.4844Z" fill="#E4E4E4"/>
<path d="M380.75 48.4844H367.65V61.6171H380.75V48.4844Z" fill="#E4E4E4"/>
<path d="M399.524 48.4844H386.424V61.6171H399.524V48.4844Z" fill="#3D3D3D"/>
<path d="M418.287 48.4844H405.188V61.6171H418.287V48.4844Z" fill="#E4E4E4"/>
<path d="M437.063 48.4844H423.963V61.6171H437.063V48.4844Z" fill="#8E989E"/>
<path d="M455.828 48.4844H442.729V61.6171H455.828V48.4844Z" fill="#3D3D3D"/>
<path d="M474.592 48.4844H461.492V61.6171H474.592V48.4844Z" fill="#4A5053"/>
<path d="M493.366 48.4844H480.266V61.6171H493.366V48.4844Z" fill="#BDBFC0"/>
<path d="M512.129 48.4844H499.029V61.6171H512.129V48.4844Z" fill="#2B3133"/>
<path d="M530.905 48.4844H517.805V61.6171H530.905V48.4844Z" fill="#4A5053"/>
<path d="M14.6527 67.4053H1.77148V80.3084H14.6527V67.4053Z" fill="#4A5053"/>
<path d="M33.4242 67.4053H20.543V80.3084H33.4242V67.4053Z" fill="#BDBFC0"/>
<path d="M52.1898 67.4053H39.3086V80.3084H52.1898V67.4053Z" fill="#2B3133"/>
<path d="M70.9652 67.4053H58.084V80.3084H70.9652V67.4053Z" fill="#E4E4E4"/>
<path d="M89.7308 67.4053H76.8496V80.3084H89.7308V67.4053Z" fill="#BDBFC0"/>
<path d="M108.493 67.4053H95.6113V80.3084H108.493V67.4053Z" fill="#E4E4E4"/>
<path d="M127.268 67.4053H114.387V80.3084H127.268V67.4053Z" fill="#8E989E"/>
<path d="M146.032 67.4053H133.15V80.3084H146.032V67.4053Z" fill="#E4E4E4"/>
<path d="M164.809 67.4053H151.928V80.3084H164.809V67.4053Z" fill="#4A5053"/>
<path d="M183.573 67.4053H170.691V80.3084H183.573V67.4053Z" fill="#8E989E"/>
<path d="M202.346 67.4053H189.465V80.3084H202.346V67.4053Z" fill="#4A5053"/>
<path d="M221.11 67.4053H208.229V80.3084H221.11V67.4053Z" fill="#E4E4E4"/>
<path d="M239.875 67.4053H226.994V80.3084H239.875V67.4053Z" fill="#8E989E"/>
<path d="M258.651 67.4053H245.77V80.3084H258.651V67.4053Z" fill="#E4E4E4"/>
<path d="M277.426 67.4053H264.545V80.3084H277.426V67.4053Z" fill="#4A5053"/>
<path d="M296.189 67.4053H283.297V80.3084H296.189V67.4053Z" fill="#2B3133"/>
<path d="M314.953 67.4053H302.072V80.3084H314.953V67.4053Z" fill="#2B3133"/>
<path d="M333.729 67.4053H320.848V80.3084H333.729V67.4053Z" fill="#E4E4E4"/>
<path d="M352.495 67.4053H339.613V80.3084H352.495V67.4053Z" fill="#4A5053"/>
<path d="M371.268 67.4053H358.387V80.3084H371.268V67.4053Z" fill="#2B3133"/>
<path d="M390.031 67.4053H377.139V80.3084H390.031V67.4053Z" fill="#2B3133"/>
<path d="M408.797 67.4053H395.916V80.3084H408.797V67.4053Z" fill="#8E989E"/>
<path d="M427.573 67.4053H414.691V80.3084H427.573V67.4053Z" fill="#BDBFC0"/>
<path d="M446.334 67.4053H433.453V80.3084H446.334V67.4053Z" fill="#8E989E"/>
<path d="M465.11 67.4053H452.229V80.3084H465.11V67.4053Z" fill="#E4E4E4"/>
<path d="M483.875 67.4053H470.982V80.3084H483.875V67.4053Z" fill="#E4E4E4"/>
<path d="M502.639 67.4053H489.758V80.3084H502.639V67.4053Z" fill="#E4E4E4"/>
<path d="M521.414 67.4053H508.533V80.3084H521.414V67.4053Z" fill="#E4E4E4"/>
<path d="M5.127 86.3457H-7.45898V98.9535H5.127V86.3457Z" fill="#4A5053"/>
<path d="M23.8887 86.3457H11.3027V98.9535H23.8887V86.3457Z" fill="#2B3133"/>
<path d="M42.666 86.3457H30.0801V98.9535H42.666V86.3457Z" fill="#4A5053"/>
<path d="M80.1954 86.3457H67.6094V98.9535H80.1954V86.3457Z" fill="#E4E4E4"/>
<path d="M98.9688 86.3457H86.3828V98.9535H98.9688V86.3457Z" fill="#2B3133"/>
<path d="M136.508 86.3457H123.922V98.9535H136.508V86.3457Z" fill="#BDBFC0"/>
<path d="M174.035 86.3457H161.449V98.9535H174.035V86.3457Z" fill="#2B3133"/>
<path d="M192.811 86.3457H180.225V98.9535H192.811V86.3457Z" fill="#8E989E"/>
<path d="M211.576 86.3457H198.99V98.9535H211.576V86.3457Z" fill="#2B3133"/>
<path d="M230.352 86.3457H217.766V98.9535H230.352V86.3457Z" fill="#BDBFC0"/>
<path d="M249.115 86.3457H236.529V98.9535H249.115V86.3457Z" fill="#8E989E"/>
<path d="M267.878 86.3457H255.303V98.9535H267.878V86.3457Z" fill="#8E989E"/>
<path d="M286.654 86.3457H274.068V98.9535H286.654V86.3457Z" fill="#2B3133"/>
<path d="M324.184 86.3457H311.609V98.9535H324.184V86.3457Z" fill="#3D3D3D"/>
<path d="M342.957 86.3457H330.371V98.9535H342.957V86.3457Z" fill="#2B3133"/>
<path d="M361.722 86.3457H349.146V98.9535H361.722V86.3457Z" fill="#4A5053"/>
<path d="M380.496 86.3457H367.91V98.9535H380.496V86.3457Z" fill="#3D3D3D"/>
<path d="M399.272 86.3457H386.686V98.9535H399.272V86.3457Z" fill="#4A5053"/>
<path d="M418.026 86.3457H405.451V98.9535H418.026V86.3457Z" fill="#3D3D3D"/>
<path d="M436.799 86.3457H424.213V98.9535H436.799V86.3457Z" fill="#BDBFC0"/>
<path d="M455.563 86.3457H442.988V98.9535H455.563V86.3457Z" fill="#4A5053"/>
<path d="M474.339 86.3457H461.764V98.9535H474.339V86.3457Z" fill="#E4E4E4"/>
<path d="M493.115 86.3457H480.529V98.9535H493.115V86.3457Z" fill="#E4E4E4"/>
<path d="M511.866 86.3457H499.291V98.9535H511.866V86.3457Z" fill="#8E989E"/>
<path d="M530.643 86.3457H518.057V98.9535H530.643V86.3457Z" fill="#2B3133"/>
<path d="M14.4005 105.272H2.0332V117.662H14.4005V105.272Z" fill="#4A5053"/>
<path d="M33.1759 105.272H20.8086V117.662H33.1759V105.272Z" fill="#BDBFC0"/>
<path d="M51.9376 105.272H39.5703V117.662H51.9376V105.272Z" fill="#E4E4E4"/>
<path d="M70.7013 105.272H58.334V117.662H70.7013V105.272Z" fill="#4A5053"/>
<path d="M89.4669 105.272H77.0996V117.662H89.4669V105.272Z" fill="#2B3133"/>
<path d="M108.231 105.272H95.875V117.662H108.231V105.272Z" fill="#BDBFC0"/>
<path d="M127.018 105.272H114.65V117.662H127.018V105.272Z" fill="#E4E4E4"/>
<path d="M145.779 105.272H133.412V117.662H145.779V105.272Z" fill="#3D3D3D"/>
<path d="M164.545 105.272H152.178V117.662H164.545V105.272Z" fill="#E4E4E4"/>
<path d="M183.32 105.272H170.953V117.662H183.32V105.272Z" fill="#4A5053"/>
<path d="M202.086 105.272H189.719V117.662H202.086V105.272Z" fill="#BDBFC0"/>
<path d="M220.859 105.272H208.492V117.662H220.859V105.272Z" fill="#BDBFC0"/>
<path d="M239.623 105.272H227.256V117.662H239.623V105.272Z" fill="#E4E4E4"/>
<path d="M258.389 105.272H246.021V117.662H258.389V105.272Z" fill="#BDBFC0"/>
<path d="M277.164 105.272H264.797V117.662H277.164V105.272Z" fill="#E4E4E4"/>
<path d="M295.926 105.272H283.559V117.662H295.926V105.272Z" fill="#E4E4E4"/>
<path d="M314.701 105.272H302.334V117.662H314.701V105.272Z" fill="#4A5053"/>
<path d="M333.467 105.272H321.1V117.662H333.467V105.272Z" fill="#4A5053"/>
<path d="M352.231 105.272H339.863V117.662H352.231V105.272Z" fill="#3D3D3D"/>
<path d="M371.006 105.272H358.639V117.662H371.006V105.272Z" fill="#8E989E"/>
<path d="M389.768 105.272H377.4V117.662H389.768V105.272Z" fill="#8E989E"/>
<path d="M408.545 105.272H396.178V117.662H408.545V105.272Z" fill="#8E989E"/>
<path d="M427.309 105.272H414.941V117.662H427.309V105.272Z" fill="#2B3133"/>
<path d="M446.074 105.272H433.707V117.662H446.074V105.272Z" fill="#2B3133"/>
<path d="M464.848 105.272H452.48V117.662H464.848V105.272Z" fill="#4A5053"/>
<path d="M483.623 105.272H471.256V117.662H483.623V105.272Z" fill="#2B3133"/>
<path d="M502.387 105.272H490.02V117.662H502.387V105.272Z" fill="#2B3133"/>
<path d="M521.152 105.272H508.785V117.662H521.152V105.272Z" fill="#BDBFC0"/>
<path d="M23.6611 124.17H11.5234V136.34H23.6611V124.17Z" fill="#4A5053"/>
<path d="M42.4474 124.17H30.2988V136.34H42.4474V124.17Z" fill="#BDBFC0"/>
<path d="M61.213 124.17H49.0645V136.34H61.213V124.17Z" fill="#2B3133"/>
<path d="M79.9728 124.17H67.8242V136.34H79.9728V124.17Z" fill="#2B3133"/>
<path d="M98.7392 124.17H86.6016V136.34H98.7392V124.17Z" fill="#BDBFC0"/>
<path d="M117.503 124.17H105.365V136.34H117.503V124.17Z" fill="#3D3D3D"/>
<path d="M136.289 124.17H124.141V136.34H136.289V124.17Z" fill="#E4E4E4"/>
<path d="M173.817 124.17H161.68V136.34H173.817V124.17Z" fill="#3D3D3D"/>
<path d="M192.581 124.17H180.443V136.34H192.581V124.17Z" fill="#BDBFC0"/>
<path d="M211.358 124.17H199.209V136.34H211.358V124.17Z" fill="#2B3133"/>
<path d="M230.133 124.17H217.984V136.34H230.133V124.17Z" fill="#2B3133"/>
<path d="M267.66 124.17H255.512V136.34H267.66V124.17Z" fill="#4A5053"/>
<path d="M286.425 124.17H274.287V136.34H286.425V124.17Z" fill="#E4E4E4"/>
<path d="M305.2 124.17H293.062V136.34H305.2V124.17Z" fill="#8E989E"/>
<path d="M342.737 124.17H330.6V136.34H342.737V124.17Z" fill="#BDBFC0"/>
<path d="M361.502 124.17H349.354V136.34H361.502V124.17Z" fill="#3D3D3D"/>
<path d="M380.269 124.17H368.131V136.34H380.269V124.17Z" fill="#E4E4E4"/>
<path d="M399.044 124.17H386.906V136.34H399.044V124.17Z" fill="#4A5053"/>
<path d="M417.817 124.17H405.668V136.34H417.817V124.17Z" fill="#4A5053"/>
<path d="M436.581 124.17H424.443V136.34H436.581V124.17Z" fill="#BDBFC0"/>
<path d="M455.346 124.17H443.197V136.34H455.346V124.17Z" fill="#4A5053"/>
<path d="M492.886 124.17H480.748V136.34H492.886V124.17Z" fill="#E4E4E4"/>
<path d="M511.658 124.17H499.51V136.34H511.658V124.17Z" fill="#4A5053"/>
<path d="M530.425 124.17H518.287V136.34H530.425V124.17Z" fill="#4A5053"/>
<path d="M14.2123 143.051H2.2168V155.068H14.2123V143.051Z" fill="#4A5053"/>
<path d="M51.7525 143.051H39.7461V155.068H51.7525V143.051Z" fill="#E4E4E4"/>
<path d="M70.517 143.051H58.5215V155.068H70.517V143.051Z" fill="#E4E4E4"/>
<path d="M89.2924 143.051H77.2969V155.068H89.2924V143.051Z" fill="#4A5053"/>
<path d="M108.056 143.051H96.0605V155.068H108.056V143.051Z" fill="#2B3133"/>
<path d="M126.82 143.051H114.824V155.068H126.82V143.051Z" fill="#2B3133"/>
<path d="M145.595 143.051H133.6V155.068H145.595V143.051Z" fill="#3D3D3D"/>
<path d="M164.361 143.051H152.365V155.068H164.361V143.051Z" fill="#4A5053"/>
<path d="M183.134 143.051H171.139V155.068H183.134V143.051Z" fill="#E4E4E4"/>
<path d="M258.213 143.051H246.207V155.068H258.213V143.051Z" fill="#BDBFC0"/>
<path d="M276.987 143.051H264.98V155.068H276.987V143.051Z" fill="#BDBFC0"/>
<path d="M295.742 143.051H283.746V155.068H295.742V143.051Z" fill="#8E989E"/>
<path d="M314.516 143.051H302.51V155.068H314.516V143.051Z" fill="#3D3D3D"/>
<path d="M333.283 143.051H321.287V155.068H333.283V143.051Z" fill="#2B3133"/>
<path d="M352.053 143.051H340.047V155.068H352.053V143.051Z" fill="#3D3D3D"/>
<path d="M370.829 143.051H358.822V155.068H370.829V143.051Z" fill="#8E989E"/>
<path d="M389.583 143.051H377.588V155.068H389.583V143.051Z" fill="#BDBFC0"/>
<path d="M408.36 143.051H396.354V155.068H408.36V143.051Z" fill="#4A5053"/>
<path d="M427.124 143.051H415.129V155.068H427.124V143.051Z" fill="#4A5053"/>
<path d="M445.897 143.051H433.891V155.068H445.897V143.051Z" fill="#2B3133"/>
<path d="M464.672 143.051H452.666V155.068H464.672V143.051Z" fill="#4A5053"/>
<path d="M483.427 143.051H471.432V155.068H483.427V143.051Z" fill="#4A5053"/>
<path d="M502.202 143.051H490.195V155.068H502.202V143.051Z" fill="#2B3133"/>
<path d="M520.975 143.051H508.969V155.068H520.975V143.051Z" fill="#E4E4E4"/>
<path d="M4.67681 162.017H-7.02344V173.739H4.67681V162.017Z" fill="#8E989E"/>
<path d="M23.4424 162.017H11.7422V173.739H23.4424V162.017Z" fill="#BDBFC0"/>
<path d="M42.2178 162.017H30.5176V173.739H42.2178V162.017Z" fill="#BDBFC0"/>
<path d="M60.9932 162.017H49.293V173.739H60.9932V162.017Z" fill="#E4E4E4"/>
<path d="M79.7549 162.017H68.0547V173.739H79.7549V162.017Z" fill="#8E989E"/>
<path d="M98.5206 162.017H86.8203V173.739H98.5206V162.017Z" fill="#4A5053"/>
<path d="M117.286 162.017H105.586V173.739H117.286V162.017Z" fill="#3D3D3D"/>
<path d="M154.837 162.017H143.137V173.739H154.837V162.017Z" fill="#BDBFC0"/>
<path d="M173.599 162.017H161.898V173.739H173.599V162.017Z" fill="#E4E4E4"/>
<path d="M192.362 162.017H180.662V173.739H192.362V162.017Z" fill="#3D3D3D"/>
<path d="M229.903 162.017H218.203V173.739H229.903V162.017Z" fill="#E4E4E4"/>
<path d="M248.665 162.017H236.965V173.739H248.665V162.017Z" fill="#8E989E"/>
<path d="M286.216 162.017H274.516V173.739H286.216V162.017Z" fill="#4A5053"/>
<path d="M323.745 162.017H312.045V173.739H323.745V162.017Z" fill="#3D3D3D"/>
<path d="M342.509 162.017H330.809V173.739H342.509V162.017Z" fill="#2B3133"/>
<path d="M361.284 162.017H349.584V173.739H361.284V162.017Z" fill="#E4E4E4"/>
<path d="M380.06 162.017H368.359V173.739H380.06V162.017Z" fill="#BDBFC0"/>
<path d="M398.825 162.017H387.125V173.739H398.825V162.017Z" fill="#4A5053"/>
<path d="M417.587 162.017H405.887V173.739H417.587V162.017Z" fill="#3D3D3D"/>
<path d="M436.351 162.017H424.662V173.739H436.351V162.017Z" fill="#BDBFC0"/>
<path d="M455.128 162.017H443.428V173.739H455.128V162.017Z" fill="#BDBFC0"/>
<path d="M492.667 162.017H480.967V173.739H492.667V162.017Z" fill="#E4E4E4"/>
<path d="M511.429 162.017H499.729V173.739H511.429V162.017Z" fill="#E4E4E4"/>
<path d="M530.206 162.017H518.506V173.739H530.206V162.017Z" fill="#E4E4E4"/>
<path d="M13.9936 180.894H2.43555V192.474H13.9936V180.894Z" fill="#2B3133"/>
<path d="M32.769 180.893H21.2109V192.473H32.769V180.893Z" fill="#4A5053"/>
<path d="M89.0737 180.894H77.5156V192.474H89.0737V180.894Z" fill="#3D3D3D"/>
<path d="M145.376 180.894H133.818V192.474H145.376V180.894Z" fill="#BDBFC0"/>
<path d="M164.142 180.894H152.584V192.474H164.142V180.894Z" fill="#2B3133"/>
<path d="M201.679 180.893H190.121V192.473H201.679V180.893Z" fill="#4A5053"/>
<path d="M220.455 180.893H208.896V192.473H220.455V180.893Z" fill="#4A5053"/>
<path d="M239.22 180.894H227.662V192.474H239.22V180.894Z" fill="#BDBFC0"/>
<path d="M257.982 180.894H246.424V192.474H257.982V180.894Z" fill="#E4E4E4"/>
<path d="M295.534 180.894H283.965V192.474H295.534V180.894Z" fill="#E4E4E4"/>
<path d="M333.073 180.894H321.504V192.474H333.073V180.894Z" fill="#E4E4E4"/>
<path d="M370.601 180.894H359.043V192.474H370.601V180.894Z" fill="#2B3133"/>
<path d="M389.376 180.894H377.807V192.474H389.376V180.894Z" fill="#E4E4E4"/>
<path d="M426.916 180.894H415.357V192.474H426.916V180.894Z" fill="#4A5053"/>
<path d="M445.667 180.893H434.109V192.473H445.667V180.893Z" fill="#E4E4E4"/>
<path d="M464.443 180.894H452.885V192.474H464.443V180.894Z" fill="#2B3133"/>
<path d="M483.219 180.894H471.65V192.474H483.219V180.894Z" fill="#E4E4E4"/>
<path d="M501.984 180.894H490.426V192.474H501.984V180.894Z" fill="#E4E4E4"/>
<path d="M520.757 180.893H509.199V192.473H520.757V180.893Z" fill="#E4E4E4"/>
<path d="M4.5035 199.795H-6.83594V211.156H4.5035V199.795Z" fill="#2B3133"/>
<path d="M23.2788 199.795H11.9395V211.156H23.2788V199.795Z" fill="#4A5053"/>
<path d="M98.3453 199.795H87.0059V211.156H98.3453V199.795Z" fill="#E4E4E4"/>
<path d="M135.884 199.795H124.545V211.156H135.884V199.795Z" fill="#BDBFC0"/>
<path d="M192.178 199.795H180.85V211.156H192.178V199.795Z" fill="#4A5053"/>
<path d="M210.964 199.795H199.625V211.156H210.964V199.795Z" fill="#E4E4E4"/>
<path d="M229.726 199.795H218.387V211.156H229.726V199.795Z" fill="#2B3133"/>
<path d="M304.795 199.795H293.467V211.156H304.795V199.795Z" fill="#8E989E"/>
<path d="M323.57 199.795H312.23V211.156H323.57V199.795Z" fill="#2B3133"/>
<path d="M342.334 199.795H331.006V211.156H342.334V199.795Z" fill="#8E989E"/>
<path d="M379.862 199.795H368.533V211.156H379.862V199.795Z" fill="#BDBFC0"/>
<path d="M398.637 199.795H387.309V211.156H398.637V199.795Z" fill="#BDBFC0"/>
<path d="M454.953 199.795H443.613V211.156H454.953V199.795Z" fill="#2B3133"/>
<path d="M492.479 199.795H481.15V211.156H492.479V199.795Z" fill="#8E989E"/>
<path d="M511.255 199.795H499.916V211.156H511.255V199.795Z" fill="#E4E4E4"/>
<path d="M530.02 199.795H518.691V211.156H530.02V199.795Z" fill="#8E989E"/>
<path d="M13.7641 218.718H2.6543V229.849H13.7641V218.718Z" fill="#2B3133"/>
<path d="M32.5394 218.718H21.4297V229.849H32.5394V218.718Z" fill="#8E989E"/>
<path d="M51.316 218.718H40.1953V229.849H51.316V218.718Z" fill="#2B3133"/>
<path d="M70.0797 218.718H58.959V229.849H70.0797V218.718Z" fill="#BDBFC0"/>
<path d="M88.8532 218.718H77.7324V229.849H88.8532V218.718Z" fill="#BDBFC0"/>
<path d="M126.394 218.718H115.273V229.849H126.394V218.718Z" fill="#E4E4E4"/>
<path d="M163.922 218.718H152.812V229.849H163.922V218.718Z" fill="#2B3133"/>
<path d="M220.236 218.718H209.115V229.849H220.236V218.718Z" fill="#2B3133"/>
<path d="M239.002 218.718H227.881V229.849H239.002V218.718Z" fill="#3D3D3D"/>
<path d="M257.775 218.718H246.654V229.849H257.775V218.718Z" fill="#E4E4E4"/>
<path d="M314.069 218.718H302.959V229.849H314.069V218.718Z" fill="#3D3D3D"/>
<path d="M332.843 218.718H321.723V229.849H332.843V218.718Z" fill="#BDBFC0"/>
<path d="M351.617 218.718H340.496V229.849H351.617V218.718Z" fill="#2B3133"/>
<path d="M426.685 218.718H415.564V229.849H426.685V218.718Z" fill="#2B3133"/>
<path d="M483 218.718H471.879V229.849H483V218.718Z" fill="#8E989E"/>
<path d="M501.763 218.718H490.643V229.849H501.763V218.718Z" fill="#E4E4E4"/>
<path d="M520.527 218.718H509.406V229.849H520.527V218.718Z" fill="#E4E4E4"/>
<path d="M4.27391 237.621H-6.61719V248.534H4.27391V237.621Z" fill="#E4E4E4"/>
<path d="M23.0493 237.621H12.1582V248.534H23.0493V237.621Z" fill="#4A5053"/>
<path d="M41.811 237.621H30.9199V248.534H41.811V237.621Z" fill="#BDBFC0"/>
<path d="M116.893 237.621H106.002V248.534H116.893V237.621Z" fill="#BDBFC0"/>
<path d="M210.733 237.621H199.842V248.534H210.733V237.621Z" fill="#E4E4E4"/>
<path d="M248.262 237.621H237.371V248.534H248.262V237.621Z" fill="#8E989E"/>
<path d="M267.038 237.621H256.146V248.534H267.038V237.621Z" fill="#E4E4E4"/>
<path d="M285.813 237.621H274.922V248.534H285.813V237.621Z" fill="#4A5053"/>
<path d="M342.117 237.621H331.215V248.534H342.117V237.621Z" fill="#2B3133"/>
<path d="M360.881 237.621H349.99V248.534H360.881V237.621Z" fill="#2B3133"/>
<path d="M379.653 237.621H368.762V248.534H379.653V237.621Z" fill="#8E989E"/>
<path d="M398.418 237.621H387.527V248.534H398.418V237.621Z" fill="#E4E4E4"/>
<path d="M417.184 237.621H406.293V248.534H417.184V237.621Z" fill="#BDBFC0"/>
<path d="M454.723 237.621H443.832V248.534H454.723V237.621Z" fill="#8E989E"/>
<path d="M473.497 237.621H462.605V248.534H473.497V237.621Z" fill="#3D3D3D"/>
<path d="M492.262 237.621H481.371V248.534H492.262V237.621Z" fill="#2B3133"/>
<path d="M511.026 237.621H500.135V248.534H511.026V237.621Z" fill="#2B3133"/>
<path d="M529.802 237.621H518.9V248.534H529.802V237.621Z" fill="#4A5053"/>
<path d="M13.5454 256.544H2.87305V267.238H13.5454V256.544Z" fill="#BDBFC0"/>
<path d="M32.3208 256.544H21.6484V267.238H32.3208V256.544Z" fill="#2B3133"/>
<path d="M51.0864 256.544H40.4141V267.238H51.0864V256.544Z" fill="#BDBFC0"/>
<path d="M88.6236 256.544H77.9512V267.238H88.6236V256.544Z" fill="#3D3D3D"/>
<path d="M126.165 256.544H115.492V267.238H126.165V256.544Z" fill="#4A5053"/>
<path d="M163.702 256.544H153.029V267.238H163.702V256.544Z" fill="#3D3D3D"/>
<path d="M201.231 256.544H190.559V267.238H201.231V256.544Z" fill="#E4E4E4"/>
<path d="M220.008 256.544H209.336V267.238H220.008V256.544Z" fill="#4A5053"/>
<path d="M238.782 256.544H228.109V267.238H238.782V256.544Z" fill="#8E989E"/>
<path d="M257.545 256.544H246.861V267.238H257.545V256.544Z" fill="#BDBFC0"/>
<path d="M276.32 256.544H265.637V267.238H276.32V256.544Z" fill="#BDBFC0"/>
<path d="M295.084 256.544H284.412V267.238H295.084V256.544Z" fill="#BDBFC0"/>
<path d="M332.625 256.544H321.953V267.238H332.625V256.544Z" fill="#4A5053"/>
<path d="M351.387 256.544H340.715V267.238H351.387V256.544Z" fill="#BDBFC0"/>
<path d="M370.153 256.544H359.48V267.238H370.153V256.544Z" fill="#4A5053"/>
<path d="M388.928 256.544H378.256V267.238H388.928V256.544Z" fill="#BDBFC0"/>
<path d="M407.694 256.544H397.021V267.238H407.694V256.544Z" fill="#4A5053"/>
<path d="M426.465 256.544H415.793V267.238H426.465V256.544Z" fill="#4A5053"/>
<path d="M445.231 256.544H434.559V267.238H445.231V256.544Z" fill="#BDBFC0"/>
<path d="M463.995 256.544H453.322V267.238H463.995V256.544Z" fill="#3D3D3D"/>
<path d="M482.772 256.544H472.1V267.238H482.772V256.544Z" fill="#2B3133"/>
<path d="M501.545 256.544H490.861V267.238H501.545V256.544Z" fill="#8E989E"/>
<path d="M520.309 256.544H509.637V267.238H520.309V256.544Z" fill="#8E989E"/>
<path d="M4.05526 275.467H-6.39844V285.942H4.05526V275.467Z" fill="#E4E4E4"/>
<path d="M22.8307 275.467H12.377V285.942H22.8307V275.467Z" fill="#3D3D3D"/>
<path d="M60.3697 275.467H49.916V285.942H60.3697V275.467Z" fill="#E4E4E4"/>
<path d="M79.1334 275.467H68.6797V285.942H79.1334V275.467Z" fill="#2B3133"/>
<path d="M191.741 275.467H181.287V285.942H191.741V275.467Z" fill="#2B3133"/>
<path d="M210.514 275.467H200.061V285.942H210.514V275.467Z" fill="#BDBFC0"/>
<path d="M248.055 275.467H237.602V285.942H248.055V275.467Z" fill="#E4E4E4"/>
<path d="M266.82 275.467H256.377V285.942H266.82V275.467Z" fill="#4A5053"/>
<path d="M304.356 275.467H293.902V285.942H304.356V275.467Z" fill="#4A5053"/>
<path d="M341.897 275.467H331.443V285.942H341.897V275.467Z" fill="#8E989E"/>
<path d="M360.662 275.467H350.219V285.942H360.662V275.467Z" fill="#4A5053"/>
<path d="M379.424 275.467H368.971V285.942H379.424V275.467Z" fill="#E4E4E4"/>
<path d="M416.964 275.467H406.521V285.942H416.964V275.467Z" fill="#2B3133"/>
<path d="M473.268 275.467H462.814V285.942H473.268V275.467Z" fill="#4A5053"/>
<path d="M492.044 275.467H481.59V285.942H492.044V275.467Z" fill="#BDBFC0"/>
<path d="M510.808 275.467H500.365V285.942H510.808V275.467Z" fill="#BDBFC0"/>
<path d="M32.0913 294.368H21.8672V304.625H32.0913V294.368Z" fill="#3D3D3D"/>
<path d="M50.8666 294.368H40.6426V304.625H50.8666V294.368Z" fill="#E4E4E4"/>
<path d="M69.6322 294.368H59.4082V304.625H69.6322V294.368Z" fill="#BDBFC0"/>
<path d="M88.394 294.368H78.1699V304.625H88.394V294.368Z" fill="#4A5053"/>
<path d="M107.171 294.368H96.9355V304.625H107.171V294.368Z" fill="#2B3133"/>
<path d="M125.935 294.368H115.711V304.625H125.935V294.368Z" fill="#4A5053"/>
<path d="M182.249 294.368H172.014V304.625H182.249V294.368Z" fill="#4A5053"/>
<path d="M219.788 294.368H209.553V304.625H219.788V294.368Z" fill="#4A5053"/>
<path d="M257.327 294.368H247.092V304.625H257.327V294.368Z" fill="#E4E4E4"/>
<path d="M276.102 294.368H265.867V304.625H276.102V294.368Z" fill="#2B3133"/>
<path d="M294.867 294.368H284.621V304.625H294.867V294.368Z" fill="#E4E4E4"/>
<path d="M332.405 294.368H322.17V304.625H332.405V294.368Z" fill="#8E989E"/>
<path d="M351.158 294.368H340.934V304.625H351.158V294.368Z" fill="#2B3133"/>
<path d="M369.933 294.368H359.709V304.625H369.933V294.368Z" fill="#4A5053"/>
<path d="M445.001 294.368H434.777V304.625H445.001V294.368Z" fill="#2B3133"/>
<path d="M463.777 294.368H453.553V304.625H463.777V294.368Z" fill="#2B3133"/>
<path d="M501.315 294.368H491.08V304.625H501.315V294.368Z" fill="#2B3133"/>
<path d="M41.3441 313.332H31.4043V323.283H41.3441V313.332Z" fill="#3D3D3D"/>
<path d="M60.1058 313.332H50.166V323.283H60.1058V313.332Z" fill="#4A5053"/>
<path d="M78.8714 313.332H68.9316V323.283H78.8714V313.332Z" fill="#BDBFC0"/>
<path d="M97.6468 313.332H87.707V323.283H97.6468V313.332Z" fill="#8E989E"/>
<path d="M116.422 313.332H106.482V323.283H116.422V313.332Z" fill="#E4E4E4"/>
<path d="M153.95 313.332H144.01V323.283H153.95V313.332Z" fill="#BDBFC0"/>
<path d="M172.713 313.332H162.773V323.283H172.713V313.332Z" fill="#E4E4E4"/>
<path d="M191.489 313.332H181.549V323.283H191.489V313.332Z" fill="#2B3133"/>
<path d="M210.264 313.332H200.324V323.283H210.264V313.332Z" fill="#4A5053"/>
<path d="M229.028 313.332H219.088V323.283H229.028V313.332Z" fill="#3D3D3D"/>
<path d="M285.332 313.332H275.393V323.283H285.332V313.332Z" fill="#4A5053"/>
<path d="M304.108 313.332H294.168V323.283H304.108V313.332Z" fill="#E4E4E4"/>
<path d="M360.399 313.332H350.471V323.283H360.399V313.332Z" fill="#3D3D3D"/>
<path d="M397.948 313.332H388.008V323.283H397.948V313.332Z" fill="#E4E4E4"/>
<path d="M416.702 313.332H406.773V323.283H416.702V313.332Z" fill="#E4E4E4"/>
<path d="M473.014 313.332H463.074V323.283H473.014V313.332Z" fill="#E4E4E4"/>
<path d="M491.791 313.332H481.852V323.283H491.791V313.332Z" fill="#E4E4E4"/>
<path d="M510.544 313.332H500.615V323.283H510.544V313.332Z" fill="#BDBFC0"/>
<path d="M31.85 332.233H22.1289V341.976H31.85V332.233Z" fill="#2B3133"/>
<path d="M50.6156 332.233H40.8945V341.976H50.6156V332.233Z" fill="#3D3D3D"/>
<path d="M69.3793 332.233H59.6582V341.976H69.3793V332.233Z" fill="#BDBFC0"/>
<path d="M106.907 332.233H97.1973V341.976H106.907V332.233Z" fill="#BDBFC0"/>
<path d="M125.694 332.233H115.973V341.976H125.694V332.233Z" fill="#4A5053"/>
<path d="M144.457 332.233H134.736V341.976H144.457V332.233Z" fill="#E4E4E4"/>
<path d="M181.986 332.233H172.275V341.976H181.986V332.233Z" fill="#2B3133"/>
<path d="M200.749 332.233H191.039V341.976H200.749V332.233Z" fill="#BDBFC0"/>
<path d="M219.536 332.233H209.814V341.976H219.536V332.233Z" fill="#8E989E"/>
<path d="M257.063 332.233H247.342V341.976H257.063V332.233Z" fill="#8E989E"/>
<path d="M294.603 332.233H284.893V341.976H294.603V332.233Z" fill="#4A5053"/>
<path d="M332.144 332.233H322.434V341.976H332.144V332.233Z" fill="#BDBFC0"/>
<path d="M350.907 332.233H341.186V341.976H350.907V332.233Z" fill="#3D3D3D"/>
<path d="M369.682 332.233H359.961V341.976H369.682V332.233Z" fill="#E4E4E4"/>
<path d="M388.446 332.233H378.736V341.976H388.446V332.233Z" fill="#8E989E"/>
<path d="M407.223 332.233H397.502V341.976H407.223V332.233Z" fill="#E4E4E4"/>
<path d="M425.998 332.233H416.277V341.976H425.998V332.233Z" fill="#8E989E"/>
<path d="M444.748 332.233H435.027V341.976H444.748V332.233Z" fill="#8E989E"/>
<path d="M463.524 332.233H453.803V341.976H463.524V332.233Z" fill="#2B3133"/>
<path d="M482.29 332.233H472.58V341.976H482.29V332.233Z" fill="#E4E4E4"/>
<path d="M519.838 332.233H510.117V341.976H519.838V332.233Z" fill="#BDBFC0"/>
<path d="M22.3371 351.156H12.8457V360.67H22.3371V351.156Z" fill="#2B3133"/>
<path d="M41.1145 351.156H31.623V360.67H41.1145V351.156Z" fill="#8E989E"/>
<path d="M59.8871 351.156H50.3848V360.669H59.8871V351.156Z" fill="#3D3D3D"/>
<path d="M78.6516 351.156H69.1602V360.67H78.6516V351.156Z" fill="#8E989E"/>
<path d="M97.4172 351.156H87.9258V360.67H97.4172V351.156Z" fill="#BDBFC0"/>
<path d="M116.193 351.156H106.701V360.669H116.193V351.156Z" fill="#BDBFC0"/>
<path d="M191.259 351.156H181.768V360.67H191.259V351.156Z" fill="#4A5053"/>
<path d="M266.338 351.156H256.836V360.67H266.338V351.156Z" fill="#4A5053"/>
<path d="M285.103 351.156H275.611V360.669H285.103V351.156Z" fill="#8E989E"/>
<path d="M303.878 351.156H294.387V360.67H303.878V351.156Z" fill="#E4E4E4"/>
<path d="M322.64 351.156H313.148V360.67H322.64V351.156Z" fill="#4A5053"/>
<path d="M341.415 351.156H331.924V360.67H341.415V351.156Z" fill="#BDBFC0"/>
<path d="M360.192 351.156H350.689V360.669H360.192V351.156Z" fill="#2B3133"/>
<path d="M416.495 351.156H406.992V360.67H416.495V351.156Z" fill="#3D3D3D"/>
<path d="M435.259 351.156H425.768V360.67H435.259V351.156Z" fill="#3D3D3D"/>
<path d="M491.562 351.156H482.07V360.67H491.562V351.156Z" fill="#E4E4E4"/>
<path d="M31.6204 370.078H22.3477V379.373H31.6204V370.078Z" fill="#2B3133"/>
<path d="M87.9251 370.078H78.6523V379.373H87.9251V370.078Z" fill="#E4E4E4"/>
<path d="M125.464 370.078H116.191V379.373H125.464V370.078Z" fill="#E4E4E4"/>
<path d="M144.241 370.078H134.957V379.373H144.241V370.078Z" fill="#8E989E"/>
<path d="M163.005 370.078H153.732V379.373H163.005V370.078Z" fill="#2B3133"/>
<path d="M181.767 370.078H172.494V379.373H181.767V370.078Z" fill="#BDBFC0"/>
<path d="M200.532 370.078H191.26V379.373H200.532V370.078Z" fill="#2B3133"/>
<path d="M219.308 370.078H210.035V379.373H219.308V370.078Z" fill="#8E989E"/>
<path d="M256.847 370.078H247.574V379.373H256.847V370.078Z" fill="#E4E4E4"/>
<path d="M275.62 370.078H266.348V379.373H275.62V370.078Z" fill="#2B3133"/>
<path d="M294.385 370.078H285.102V379.373H294.385V370.078Z" fill="#4A5053"/>
<path d="M313.15 370.078H303.877V379.373H313.15V370.078Z" fill="#E4E4E4"/>
<path d="M331.926 370.078H322.643V379.373H331.926V370.078Z" fill="#8E989E"/>
<path d="M350.7 370.078H341.416V379.373H350.7V370.078Z" fill="#E4E4E4"/>
<path d="M369.462 370.078H360.189V379.373H369.462V370.078Z" fill="#3D3D3D"/>
<path d="M388.227 370.078H378.943V379.373H388.227V370.078Z" fill="#E4E4E4"/>
<path d="M406.993 370.078H397.721V379.373H406.993V370.078Z" fill="#4A5053"/>
<path d="M425.769 370.078H416.496V379.373H425.769V370.078Z" fill="#2B3133"/>
<path d="M463.306 370.078H454.033V379.373H463.306V370.078Z" fill="#2B3133"/>
<path d="M482.082 370.078H472.799V379.373H482.082V370.078Z" fill="#E4E4E4"/>
<path d="M500.835 370.078H491.562V379.373H500.835V370.078Z" fill="#4A5053"/>
<path d="M22.0869 389.021H13.1094V398.021H22.0869V389.021Z" fill="#8E989E"/>
<path d="M40.8505 389.021H31.873V398.021H40.8505V389.021Z" fill="#8E989E"/>
<path d="M78.3896 389.021H69.4121V398.021H78.3896V389.021Z" fill="#2B3133"/>
<path d="M97.165 389.021H88.1875V398.021H97.165V389.021Z" fill="#BDBFC0"/>
<path d="M115.929 389.021H106.951V398.021H115.929V389.021Z" fill="#3D3D3D"/>
<path d="M153.47 389.021H144.492V398.021H153.47V389.021Z" fill="#8E989E"/>
<path d="M172.231 389.021H163.254V398.021H172.231V389.021Z" fill="#4A5053"/>
<path d="M209.772 389.021H200.795V398.021H209.772V389.021Z" fill="#BDBFC0"/>
<path d="M247.31 389.021H238.332V398.021H247.31V389.021Z" fill="#2B3133"/>
<path d="M266.074 389.021H257.107V398.021H266.074V389.021Z" fill="#4A5053"/>
<path d="M284.851 389.021H275.873V398.021H284.851V389.021Z" fill="#8E989E"/>
<path d="M322.378 389.021H313.4V398.021H322.378V389.021Z" fill="#8E989E"/>
<path d="M341.153 389.021H332.176V398.021H341.153V389.021Z" fill="#BDBFC0"/>
<path d="M359.929 389.021H350.951V398.021H359.929V389.021Z" fill="#2B3133"/>
<path d="M378.692 389.021H369.715V398.021H378.692V389.021Z" fill="#8E989E"/>
<path d="M397.468 389.021H388.49V398.021H397.468V389.021Z" fill="#BDBFC0"/>
<path d="M434.995 389.021H426.018V398.021H434.995V389.021Z" fill="#3D3D3D"/>
<path d="M472.536 389.021H463.559V398.021H472.536V389.021Z" fill="#2B3133"/>
<path d="M12.5514 407.967H3.86914V416.671H12.5514V407.967Z" fill="#8E989E"/>
<path d="M31.3268 407.967H22.6445V416.671H31.3268V407.967Z" fill="#E4E4E4"/>
<path d="M68.8639 407.967H60.1816V416.671H68.8639V407.967Z" fill="#2B3133"/>
<path d="M200.237 407.967H191.555V416.671H200.237V407.967Z" fill="#8E989E"/>
<path d="M219.012 407.967H210.33V416.671H219.012V407.967Z" fill="#8E989E"/>
<path d="M237.774 407.967H229.092V416.671H237.774V407.967Z" fill="#2B3133"/>
<path d="M256.551 407.967H247.869V416.671H256.551V407.967Z" fill="#4A5053"/>
<path d="M275.326 407.967H266.633V416.671H275.326V407.967Z" fill="#3D3D3D"/>
<path d="M294.09 407.967H285.408V416.671H294.09V407.967Z" fill="#E4E4E4"/>
<path d="M312.863 407.967H304.17V416.671H312.863V407.967Z" fill="#4A5053"/>
<path d="M331.618 407.967H322.936V416.671H331.618V407.967Z" fill="#BDBFC0"/>
<path d="M350.393 407.967H341.711V416.671H350.393V407.967Z" fill="#E4E4E4"/>
<path d="M369.17 407.967H360.477V416.671H369.17V407.967Z" fill="#E4E4E4"/>
<path d="M387.934 407.967H379.252V416.671H387.934V407.967Z" fill="#8E989E"/>
<path d="M406.707 407.967H398.014V416.671H406.707V407.967Z" fill="#E4E4E4"/>
<path d="M425.462 407.967H416.779V416.671H425.462V407.967Z" fill="#4A5053"/>
<path d="M500.549 407.967H491.855V416.671H500.549V407.967Z" fill="#8E989E"/>
<path d="M519.314 407.967H510.621V416.671H519.314V407.967Z" fill="#3D3D3D"/>
<path d="M40.5983 426.89H32.1348V435.364H40.5983V426.89Z" fill="#BDBFC0"/>
<path d="M59.3639 426.89H50.9004V435.364H59.3639V426.89Z" fill="#3D3D3D"/>
<path d="M78.1393 426.89H69.6758V435.364H78.1393V426.89Z" fill="#3D3D3D"/>
<path d="M228.284 426.89H219.82V435.364H228.284V426.89Z" fill="#E4E4E4"/>
<path d="M247.059 426.89H238.596V435.364H247.059V426.89Z" fill="#BDBFC0"/>
<path d="M284.587 426.89H276.123V435.364H284.587V426.89Z" fill="#2B3133"/>
<path d="M322.128 426.89H313.664V435.364H322.128V426.89Z" fill="#4A5053"/>
<path d="M340.903 426.89H332.439V435.364H340.903V426.89Z" fill="#E4E4E4"/>
<path d="M378.43 426.89H369.967V435.364H378.43V426.89Z" fill="#8E989E"/>
<path d="M397.206 426.89H388.742V435.364H397.206V426.89Z" fill="#BDBFC0"/>
<path d="M415.97 426.89H407.518V435.364H415.97V426.89Z" fill="#2B3133"/>
<path d="M434.743 426.89H426.279V435.364H434.743V426.89Z" fill="#4A5053"/>
<path d="M472.274 426.89H463.811V435.364H472.274V426.89Z" fill="#3D3D3D"/>
<path d="M491.05 426.89H482.586V435.364H491.05V426.89Z" fill="#4A5053"/>
<path d="M509.812 426.89H501.359V435.364H509.812V426.89Z" fill="#2B3133"/>
<path d="M12.3101 445.83H4.13086V454.009H12.3101V445.83Z" fill="#4A5053"/>
<path d="M31.0648 445.83H22.8965V454.009H31.0648V445.83Z" fill="#E4E4E4"/>
<path d="M68.6039 445.83H60.4355V454.009H68.6039V445.83Z" fill="#8E989E"/>
<path d="M162.444 445.83H154.275V454.009H162.444V445.83Z" fill="#4A5053"/>
<path d="M237.526 445.83H229.357V454.009H237.526V445.83Z" fill="#E4E4E4"/>
<path d="M368.897 445.83H360.729V454.009H368.897V445.83Z" fill="#4A5053"/>
<path d="M406.446 445.83H398.277V454.009H406.446V445.83Z" fill="#8E989E"/>
<path d="M443.985 445.83H435.816V454.009H443.985V445.83Z" fill="#4A5053"/>
<path d="M500.287 445.83H492.119V454.009H500.287V445.83Z" fill="#BDBFC0"/>
<path d="M21.5403 464.794H13.6562V472.689H21.5403V464.794Z" fill="#E4E4E4"/>
<path d="M40.3047 464.794H32.4316V472.689H40.3047V464.794Z" fill="#8E989E"/>
<path d="M77.8418 464.794H69.9688V472.689H77.8418V464.794Z" fill="#BDBFC0"/>
<path d="M152.91 464.794H145.037V472.689H152.91V464.794Z" fill="#4A5053"/>
<path d="M190.46 464.794H182.576V472.689H190.46V464.794Z" fill="#2B3133"/>
<path d="M209.225 464.794H201.352V472.689H209.225V464.794Z" fill="#4A5053"/>
<path d="M227.988 464.794H220.115V472.689H227.988V464.794Z" fill="#BDBFC0"/>
<path d="M284.293 464.794H276.42V472.689H284.293V464.794Z" fill="#2B3133"/>
<path d="M303.068 464.794H295.195V472.689H303.068V464.794Z" fill="#BDBFC0"/>
<path d="M321.841 464.794H313.957V472.689H321.841V464.794Z" fill="#3D3D3D"/>
<path d="M396.908 464.794H389.035V472.689H396.908V464.794Z" fill="#3D3D3D"/>
<path d="M434.449 464.794H426.576V472.689H434.449V464.794Z" fill="#4A5053"/>
<path d="M12.0056 483.741H4.42773V491.341H12.0056V483.741Z" fill="#4A5053"/>
<path d="M49.5427 483.741H41.9648V491.341H49.5427V483.741Z" fill="#4A5053"/>
<path d="M105.847 483.741H98.2695V491.341H105.847V483.741Z" fill="#4A5053"/>
<path d="M124.609 483.741H117.031V491.341H124.609V483.741Z" fill="#3D3D3D"/>
<path d="M180.916 483.741H173.338V491.341H180.916V483.741Z" fill="#2B3133"/>
<path d="M199.691 483.741H192.113V491.341H199.691V483.741Z" fill="#3D3D3D"/>
<path d="M255.994 483.741H248.416V491.341H255.994V483.741Z" fill="#E4E4E4"/>
<path d="M274.769 483.741H267.191V491.341H274.769V483.741Z" fill="#BDBFC0"/>
<path d="M312.297 483.741H304.719V491.341H312.297V483.741Z" fill="#E4E4E4"/>
<path d="M331.072 483.741H323.494V491.341H331.072V483.741Z" fill="#8E989E"/>
<path d="M349.836 483.741H342.258V491.341H349.836V483.741Z" fill="#E4E4E4"/>
<path d="M424.914 483.741H417.336V491.341H424.914V483.741Z" fill="#4A5053"/>
<path d="M499.982 483.741H492.404V491.341H499.982V483.741Z" fill="#4A5053"/>
<path d="M518.758 483.741H511.18V491.341H518.758V483.741Z" fill="#2B3133"/>
<path d="M2.47009 502.703H-4.8125V510.008H2.47009V502.703Z" fill="#E4E4E4"/>
<path d="M21.2455 502.703H13.9629V510.008H21.2455V502.703Z" fill="#E4E4E4"/>
<path d="M40.0072 502.703H32.7246V510.008H40.0072V502.703Z" fill="#BDBFC0"/>
<path d="M58.7728 502.703H51.4902V510.008H58.7728V502.703Z" fill="#BDBFC0"/>
<path d="M77.5494 502.703H70.2559V510.008H77.5494V502.703Z" fill="#4A5053"/>
<path d="M96.3138 502.703H89.0312V510.008H96.3138V502.703Z" fill="#4A5053"/>
<path d="M133.851 502.703H126.568V510.008H133.851V502.703Z" fill="#2B3133"/>
<path d="M171.392 502.703H164.109V510.008H171.392V502.703Z" fill="#BDBFC0"/>
<path d="M246.469 502.703H239.176V510.008H246.469V502.703Z" fill="#BDBFC0"/>
<path d="M265.234 502.703H257.951V510.008H265.234V502.703Z" fill="#2B3133"/>
<path d="M321.536 502.703H314.254V510.008H321.536V502.703Z" fill="#2B3133"/>
<path d="M377.85 502.703H370.557V510.008H377.85V502.703Z" fill="#BDBFC0"/>
<path d="M396.626 502.703H389.332V510.008H396.626V502.703Z" fill="#4A5053"/>
<path d="M415.38 502.703H408.098V510.008H415.38V502.703Z" fill="#4A5053"/>
<path d="M471.693 502.703H464.41V510.008H471.693V502.703Z" fill="#8E989E"/>
<path d="M509.234 502.703H501.951V510.008H509.234V502.703Z" fill="#2B3133"/>
<path d="M105.583 521.604H98.5195V528.679H105.583V521.604Z" fill="#3D3D3D"/>
<path d="M143.124 521.604H136.061V528.679H143.124V521.604Z" fill="#2B3133"/>
<path d="M180.663 521.604H173.6V528.679H180.663V521.604Z" fill="#8E989E"/>
<path d="M218.203 521.604H211.139V528.679H218.203V521.604Z" fill="#E4E4E4"/>
<path d="M236.966 521.604H229.902V528.679H236.966V521.604Z" fill="#2B3133"/>
<path d="M293.283 521.604H286.219V528.679H293.283V521.604Z" fill="#3D3D3D"/>
<path d="M405.886 521.604H398.822V528.679H405.886V521.604Z" fill="#4A5053"/>
<path d="M424.662 521.604H417.598V528.679H424.662V521.604Z" fill="#BDBFC0"/>
<path d="M462.193 521.604H455.129V528.679H462.193V521.604Z" fill="#4A5053"/>
</g>
</svg>
